<?xml version="1.0" encoding="UTF-8"?>
<svg version="1.1" viewBox="0 0 2048 437" width="1344" height="287" xmlns="http://www.w3.org/2000/svg">
<path transform="translate(0)" d="m0 0h438v437h-438z" fill="#232638"/>
<path transform="translate(983,145)" d="m0 0h13l10 19 14 27 10 19 13 25 3 5v2h2l2-6 20-39 14-27 12-23 2-2h12v136h-14l-1-101-12 23-15 28-14 27-4 2h-9l-12-22-17-32-14-26-1 101h-14l-1-1v-134z" fill="#727172"/>
<path transform="translate(1333,145)" d="m0 0h50l16 2 12 4 11 6 9 8 8 12 5 14 2 14v17l-3 16-5 13-8 11-9 8-14 7-13 3-8 1h-54v-135zm15 14v108h39l16-4 11-7 7-8 4-8 4-16v-21l-3-14-6-12-6-7-10-6-12-4-7-1z" fill="#727172"/>
<path transform="translate(165,133)" d="m0 0h5l9 20 15 36 19 45 16 38 7 15 4 6 8 4 6 2v5h-66v-5l17-3 3-3-1-9-15-37-17-41-16-39v-2h-2l-3 9-15 37-18 43-8 22-1 9 3 7 5 4 10 3v5h-50v-5l12-5 8-9 8-17 14-34 36-86 6-14z" fill="#FDFDFD"/>
<path transform="translate(223,133)" d="m0 0h92l4 10 10 28v2h-5l-8-15-9-10-8-5-8-3-7-1-33-1 8 20 19 45 18 43 12 28 8 16 5 5 12 4v5h-67v-5l19-3 1-9-11-28-15-36-19-46-15-36z" fill="#FDFDFD"/>
<path transform="translate(626,145)" d="m0 0h13l5 8 13 30 19 43 18 41 5 11v3h-16l-7-15-8-19h-70l-14 33-1 1h-16l1-5 18-41 19-43 18-41zm6 21-23 53-5 12v2h58l-3-9-24-56-1-2z" fill="#727172"/>
<path transform="translate(1811,145)" d="m0 0h13l4 6 17 39 19 43 18 41 2 7h-16l-5-10-10-24h-70l-13 30-2 4h-16l1-5 36-82 19-43zm6 21-11 25-17 40v2h58l-3-9-24-56-1-2z" fill="#727172"/>
<path transform="translate(1183,145)" d="m0 0h84l1 1v12l-1 1h-69l1 46 65 1v13h-66v49h70v13h-86v-135z" fill="#727172"/>
<path transform="translate(1647,144)" d="m0 0h21l16 4 12 6 8 7-5 12-5-2-13-8-14-4h-18l-13 4-9 6-7 9-5 12-2 8-1 9v12l2 14 5 14 7 9 9 7 12 4h21l13-4 11-6 6-4 6 11-2 4-11 7-12 5-9 2h-25l-12-3-12-6-12-11-8-13-5-16-1-6v-28l4-16 8-16 8-9 10-7 12-5z" fill="#727172"/>
<path transform="translate(728,145)" d="m0 0h109l1 1v12l-1 1-46 1-1 121h-15l-1-1v-121h-47v-13z" fill="#727172"/>
<path transform="translate(1943,145)" d="m0 0h15v122h68v14h-83l-1-1v-134z" fill="#727172"/>
<path transform="translate(1513,145)" d="m0 0h15v136h-15l-1-1v-134z" fill="#727172"/>
<path transform="translate(913,68)" d="m0 0h2v284h-2z" fill="#6D6C6E"/>
<path transform="translate(1879,311)" d="m0 0h13l7 4-1 4-4-1-5-2h-7l-6 3-3 4-1 4v10l3 7 5 3h15v-12h-10v-4h15v19l-5 2-13 1-8-3-5-5-3-6v-15l3-6 5-5z" fill="#727172"/>
<path transform="translate(1992,311)" d="m0 0 5 1v17h24v-18h5v41l-2 1-3-1v-18h-24v18l-2 1-3-1z" fill="#727172"/>
<path transform="translate(1919,323)" d="m0 0h6l4 2 2 2 3-3 9-1 5 3 1 2v24h-5l-1-22-2-2-6 1-2 2-1 4-1 17h-5l-1-22-2-2-6 1-2 2-1 4-1 17h-5v-28h5 3z" fill="#727172"/>
<path transform="translate(1958,311)" d="m0 0 5 1 1 14 5-3 9 1 5 5 2 6-1 10-5 6-9 2-5-2-1-1-1 2h-5zm11 16-5 4-1 2v10l4 5h8l4-5v-11l-4-4z" fill="#727172"/>
<path transform="translate(2021,122)" d="m0 0h10l8 4 5 5 4 8v10l-4 8-8 7-6 2h-9l-10-5-4-5-3-7v-10l5-10 9-6zm1 3-7 3-6 7-2 5v9l4 8 7 5 3 1h10l8-5 5-6 1-4v-8l-4-8-6-5-5-2z" fill="#727172"/>
<path transform="translate(2018,132)" d="m0 0h12l5 3 1 4-2 5-3 1 5 9v2l-4-1-5-8-6-1v10h-3zm3 3v8l1 1 9-1 1-1v-5l-2-2z" fill="#727172"/>
</svg>
